<svg width="20" height="20" viewBox="0 0 20 20" fill="none" xmlns="http://www.w3.org/2000/svg">
<path d="M4.375 3.33333H15.625C16.3168 3.33328 16.9824 3.59796 17.4852 4.07305C17.988 4.54815 18.29 5.19766 18.3292 5.88833L18.3333 6.04166V13.9583C18.3334 14.6501 18.0687 15.3157 17.5936 15.8185C17.1185 16.3214 16.469 16.6233 15.7783 16.6625L15.625 16.6667H4.375C3.68322 16.6667 3.01764 16.402 2.51481 15.9269C2.01197 15.4518 1.71 14.8023 1.67083 14.1117L1.66667 13.9583V6.04166C1.66662 5.34988 1.9313 4.6843 2.40639 4.18147C2.88149 3.67863 3.531 3.37666 4.22167 3.3375L4.375 3.33333ZM17.0833 7.81083L10.2917 11.3858C10.215 11.4263 10.1307 11.4504 10.0442 11.4566C9.95768 11.4628 9.87083 11.4509 9.78917 11.4217L9.70917 11.3867L2.91667 7.81166V13.9583C2.91668 14.3243 3.05431 14.6769 3.30223 14.9462C3.55016 15.2154 3.89025 15.3815 4.255 15.4117L4.375 15.4167H15.625C15.9911 15.4166 16.3438 15.2789 16.6131 15.0308C16.8823 14.7827 17.0484 14.4424 17.0783 14.0775L17.0833 13.9583V7.81083ZM15.625 4.58333H4.375C4.00901 4.58334 3.6564 4.72097 3.38718 4.96889C3.11795 5.21682 2.95178 5.55691 2.92167 5.92166L2.91667 6.04166V6.39916L10 10.1275L17.0833 6.39833V6.04166C17.0833 5.67554 16.9456 5.32282 16.6975 5.05357C16.4494 4.78432 16.1091 4.61825 15.7442 4.58833L15.625 4.58333Z" fill="#FF455C"/>
</svg>
