<svg width="169" height="34" viewBox="0 0 169 34" fill="none" xmlns="http://www.w3.org/2000/svg">
<g clipPath="url(#clip0_1_69)">
<mask id="mask0_1_69" style="mask-type:luminance" maskUnits="userSpaceOnUse" x="0" y="0" width="169" height="34">
<path d="M168.509 0H0V33.167H168.509V0Z" fill="white"/>
</mask>
<g mask="url(#mask0_1_69)">
<path d="M66.1762 3.31948H54.0337C52.0493 3.31948 50.81 3.66033 50.3184 4.34288C50.034 4.75853 49.8895 5.70203 49.8895 7.17168C49.8895 7.94433 50.263 8.54528 51.0089 8.97623C51.6277 9.31623 52.6353 9.48793 54.0328 9.48793H59.0555C61.198 9.48793 62.9125 9.88913 64.1991 10.6915C65.4839 11.4922 66.1272 12.6219 66.1272 14.0762V17.5961C66.1272 19.1261 65.4675 20.2991 64.151 21.1168C62.8326 21.9336 61.0308 22.3408 58.7466 22.3408H45.1993V19.0895H57.3419C59.3581 19.0895 60.6129 18.7172 61.1044 17.9743C61.3261 17.5893 61.4388 16.5863 61.4388 14.9679C61.4388 13.454 60.1195 12.695 57.4845 12.695H52.4609C50.3811 12.695 48.6747 12.3244 47.3418 11.5806C45.8826 10.7646 45.1512 9.65028 45.1512 8.24013V4.76618C45.1512 3.20728 45.9453 1.96628 47.5335 1.04573C48.6438 0.392083 50.2548 0.0673828 52.3655 0.0673828H66.1753L66.1762 3.31948Z" fill="white"/>
<path d="M81.2708 8.6411H75.961V22.3406H71.7696V0H75.961V5.83695H81.2708V8.6411Z" fill="white"/>
<path d="M96.5808 8.24178C93.3434 8.24178 91.4608 8.29958 90.9374 8.41943C89.8253 8.73053 89.2711 9.48108 89.2711 10.6685V22.2532H84.9361V9.88908C84.9361 6.87583 87.1976 5.36963 91.7216 5.36963H96.5808V8.24178Z" fill="white"/>
<path d="M120.77 18.1978C120.77 19.6232 120.087 20.7138 118.722 21.472C117.756 22.0525 116.295 22.3407 114.344 22.3407H107.08C104.86 22.3407 103.195 21.9692 102.093 21.2272C100.991 20.4843 100.44 19.4736 100.44 18.1978V9.84568C100.44 8.39048 101.139 7.26168 102.535 6.46098C103.549 5.87958 105.064 5.59229 107.081 5.59229H114.346C116.359 5.59229 117.838 5.88128 118.773 6.46098C120.106 7.21833 120.773 8.34713 120.773 9.84568V18.1978H120.77ZM116.582 17.4183V10.6251C116.582 9.85333 116.257 9.28978 115.606 8.93193C115.084 8.59108 114.272 8.41938 113.175 8.41938H108.199C107.054 8.41938 106.208 8.58939 105.651 8.93193C104.968 9.28978 104.626 9.85333 104.626 10.6251V17.3741C104.626 18.1009 104.968 18.6432 105.651 18.9993C106.175 19.3096 106.921 19.4677 107.888 19.4677H113.461C114.398 19.4677 115.111 19.3096 115.604 18.9993C116.255 18.644 116.582 18.1162 116.582 17.4183Z" fill="white"/>
<path d="M130.294 22.3406H126.106V0H130.294V22.3406ZM145.365 22.3406H140.197L131.269 14.9235C130.78 14.5376 130.531 14.1644 130.531 13.8083C130.531 13.4224 130.808 12.9914 131.365 12.5163L139.792 5.6321H144.816L135.029 13.8066L145.365 22.3406Z" fill="white"/>
<path d="M168.509 12.205L152.462 16.6386V17.1945C152.462 18.07 152.82 18.7084 153.533 19.1113C154.026 19.3484 154.876 19.4674 156.082 19.4674H168.462V22.3404H155.296C153.025 22.3404 151.351 22.0208 150.273 21.3825C148.906 20.6243 148.227 19.4224 148.227 17.7742V9.84543C148.227 7.00813 150.455 5.59033 154.915 5.59033H162.273C166.432 5.59033 168.51 7.09738 168.51 10.1115L168.509 12.205ZM164.224 10.5798V10.3342C164.224 9.05748 163.112 8.41913 160.89 8.41913H156.272C153.699 8.41913 152.414 9.14078 152.414 10.5798V13.8549L164.224 10.5798Z" fill="white"/>
<path d="M117.45 33.0813H116.333V27.8096H117.45V33.0813Z" fill="white"/>
<path d="M125.06 32.4507C125.06 32.6504 124.984 32.8162 124.83 32.9445C124.662 33.0933 124.435 33.1672 124.15 33.1672C123.884 33.1672 123.677 33.1103 123.532 32.9972C123.469 32.9488 123.357 32.8068 123.195 32.5722L120.594 28.8679V33.095H119.527V28.5942C119.527 28.0808 119.828 27.8267 120.437 27.8267C120.714 27.8267 120.923 27.8802 121.065 27.9899C121.143 28.0468 121.26 28.1888 121.413 28.4149L123.993 32.1158V27.8743H125.06V32.4507Z" fill="white"/>
<path d="M132.139 30.8415H128.261V33.0813H127.143V28.9018C127.143 28.5635 127.315 28.2873 127.66 28.0773C127.937 27.9167 128.346 27.8359 128.89 27.8359H132.138V28.6026H129.193C128.571 28.6026 128.261 28.7828 128.261 29.1441V30.0842H132.14L132.139 30.8415Z" fill="white"/>
<path d="M139.77 31.8877C139.77 32.6833 139.158 33.0803 137.934 33.0803H136.245C135.652 33.0803 135.209 32.9919 134.917 32.8176C134.566 32.6068 134.39 32.3008 134.39 31.8971V29.0275C134.39 28.628 134.569 28.3186 134.93 28.0984C135.215 27.9148 135.652 27.8247 136.245 27.8247H137.947C139.164 27.8247 139.773 28.2259 139.773 29.0275V31.8877H139.77ZM138.67 31.6973V29.2485C138.67 29.0037 138.592 28.8337 138.438 28.7368C138.285 28.6399 138.031 28.5923 137.68 28.5923H136.507C136.147 28.5923 135.889 28.6407 135.735 28.7368C135.583 28.832 135.505 29.0028 135.505 29.2485V31.6769C135.505 31.8945 135.59 32.0603 135.757 32.1767C135.896 32.2668 136.146 32.3127 136.505 32.3127H137.678C138.025 32.3127 138.274 32.2668 138.432 32.1767C138.592 32.0858 138.67 31.9268 138.67 31.6973Z" fill="white"/>
<path d="M146.252 28.5763H144.341V33.0813H143.223V28.5763H141.324V27.8096H146.252V28.5763Z" fill="white"/>
<path d="M152.552 30.8373H148.907V31.7247C148.907 32.1174 149.232 32.3129 149.885 32.3129H152.772V33.0796H149.581C149.031 33.0796 148.602 32.9912 148.295 32.8127C147.956 32.6121 147.787 32.3307 147.787 31.9669V29.0072C147.787 28.6434 147.938 28.357 148.236 28.1479C148.536 27.9396 148.951 27.8359 149.479 27.8359H152.771V28.6026H149.872C149.23 28.6026 148.905 28.7956 148.905 29.1815V30.0808H152.552L152.552 30.8373Z" fill="white"/>
<path d="M160.108 28.5871H157.165C156.843 28.5871 156.613 28.6279 156.472 28.7104C156.303 28.8175 156.22 28.9688 156.22 29.1609V31.6471C156.22 31.8962 156.296 32.0696 156.446 32.1656C156.595 32.2642 156.854 32.3144 157.222 32.3144H160.098V33.0811H156.807C156.263 33.0811 155.843 32.9774 155.546 32.7683C155.252 32.5617 155.105 32.2702 155.105 31.8996V28.9934C155.105 28.5582 155.263 28.2488 155.576 28.0618C155.846 27.9012 156.285 27.8213 156.897 27.8213H160.109L160.108 28.5871Z" fill="white"/>
<path d="M167.838 33.0811H166.724V30.8371H163.363V33.0811H162.246V27.8247H163.363V30.0789H166.724V27.8247H167.838V33.0811Z" fill="white"/>
<path d="M37.5044 0.0078125H8.29554C6.90992 0.0078125 5.7887 1.05841 5.7887 2.35551C5.7887 3.65091 6.90901 4.69981 8.29554 4.69981H11.74C13.0848 4.74231 14.166 5.76996 14.166 7.03731C14.166 8.33356 13.043 9.38416 11.6583 9.38416H2.50774C1.12303 9.38416 0 10.4339 0 11.7293C0 13.0247 1.12212 14.077 2.50774 14.077H25.956C27.3398 14.077 28.4629 13.0264 28.4629 11.7293C28.4629 10.4356 27.3407 9.38416 25.956 9.38416H24.1661C22.7823 9.38416 21.6583 8.33526 21.6583 7.03731C21.6583 5.76996 22.7387 4.74231 24.0843 4.69981H37.5053C38.89 4.69981 40.013 3.65091 40.013 2.35466C40.013 1.05756 38.89 0.0078125 37.5044 0.0078125Z" fill="#FF2449"/>
<path d="M37.5044 22.3395H15.9769C14.5931 22.3395 13.47 21.2897 13.47 19.9935C13.47 18.6989 14.5922 17.6475 15.9769 17.6475H37.5044C38.8891 17.6475 40.0121 18.6972 40.0121 19.9935C40.0121 21.2897 38.89 22.3395 37.5044 22.3395Z" fill="#FF2449"/>
<path d="M37.5044 14.0752H32.6215C31.2368 14.0752 30.1138 13.0246 30.1138 11.7275C30.1138 10.4338 31.2359 9.38232 32.6215 9.38232H37.5044C38.8891 9.38232 40.0121 10.4321 40.0121 11.7275C40.0121 13.0237 38.89 14.0752 37.5044 14.0752Z" fill="#FF2449"/>
</g>
</g>
<defs>
<clipPath id="clip0_1_69">
<rect width="169" height="34" fill="white"/>
</clipPath>
</defs>
</svg>
