<svg width="50" height="50" viewBox="0 0 50 50" fill="none" xmlns="http://www.w3.org/2000/svg">
<g clipPath="url(#clip0_5_1454)">
<path d="M7.784 44.1369C7.784 41.9783 9.53399 40.2283 11.6926 40.2283H5.82971C3.67107 40.2283 1.92108 41.9783 1.92108 44.1369C1.92108 46.2955 3.67107 48.0455 5.82971 48.0455H11.6926C9.53399 48.0455 7.784 46.2955 7.784 44.1369Z" fill="#FCEEF0"/>
<path d="M44.1338 34.8543C43.0544 34.8543 42.1794 33.9793 42.1794 32.9001V31.7195C42.2755 29.1293 45.9928 29.1312 46.088 31.7195V32.9001C46.088 33.9793 45.2131 34.8543 44.1338 34.8543ZM7.7836 32.9001V18.5359C7.7836 14.2254 11.2904 10.7186 15.6018 10.7186L23.9077 10.7145C26.4978 10.6171 26.4941 6.89991 23.9056 6.80591L15.6008 6.81002C9.13519 6.81002 3.87497 12.0702 3.87497 18.5359V32.9001C3.87497 33.9793 4.74992 34.8543 5.82928 34.8543C6.90864 34.8543 7.7836 33.9793 7.7836 32.9001ZM49.9966 44.1373C49.9966 40.9045 47.3666 38.2743 44.1338 38.2743H5.82928C-1.93997 38.5701 -1.93401 49.7073 5.82928 50.0003H44.1338C47.3666 50.0003 49.9966 47.3701 49.9966 44.1373ZM44.1338 42.1831C46.7234 42.2817 46.7216 45.994 44.1338 46.0917H5.82928C3.23953 45.9931 3.24149 42.2806 5.82928 42.1831H44.1338Z" fill="#14133B"/>
<path d="M44.7201 8.40058V5.82471C44.4244 -1.94454 33.2872 -1.93859 32.9942 5.82471V8.36745C29.877 9.39581 27.62 12.3343 27.62 15.7917V18.43C27.62 22.7405 31.1267 26.2472 35.4372 26.2472H42.1795C46.49 26.2472 49.9967 22.7405 49.9967 18.43V15.7917C49.9967 12.3706 47.7869 9.45777 44.7201 8.40058ZM38.8572 3.87041C39.9348 3.87041 40.8116 4.74711 40.8116 5.82471V7.97446H36.903V5.82471C36.903 4.74711 37.7795 3.87041 38.8572 3.87041ZM46.0881 18.43C46.0881 20.5852 44.3347 22.3386 42.1795 22.3386H35.4372C33.282 22.3386 31.5286 20.5852 31.5286 18.43V15.7917C31.5286 13.6365 33.282 11.8831 35.4372 11.8831H42.1795C44.3347 11.8831 46.0881 13.6365 46.0881 15.7917V18.43ZM41.3002 17.1597C41.3002 18.5089 40.2064 19.6027 38.8572 19.6027C35.6203 19.4828 35.6211 14.8361 38.8572 14.7168C40.2064 14.7168 41.3002 15.8105 41.3002 17.1597Z" fill="#FF455C"/>
</g>
<defs>
<clipPath id="clip0_5_1454">
<rect width="50" height="50" fill="white"/>
</clipPath>
</defs>
</svg>
