<svg width="50" height="50" viewBox="0 0 50 50" fill="none" xmlns="http://www.w3.org/2000/svg">
<g clip-path="url(#clip0_5_1450)">
<path d="M15.4877 17.2852H9.6283C5.3945 17.2852 1.96228 13.8529 1.96228 9.61914C1.96228 5.38534 5.3945 1.95312 9.6283 1.95312H15.4877C11.2539 1.95312 7.82166 5.38534 7.82166 9.61914C7.82166 13.8529 11.2538 17.2852 15.4877 17.2852ZM7.82166 40.3809C7.82166 36.147 11.2539 32.7148 15.4877 32.7148H9.6283C5.3945 32.7148 1.96228 36.147 1.96228 40.3809C1.96228 44.6147 5.3945 48.0469 9.6283 48.0469H15.4877C11.2538 48.0469 7.82166 44.6147 7.82166 40.3809ZM7.82166 25.0487C7.82166 20.815 11.2539 17.3828 15.4877 17.3828H9.6283C5.3945 17.3828 1.96228 20.815 1.96228 25.0487C1.96228 29.2827 5.3945 32.7148 9.6283 32.7148H15.4877C11.2538 32.7148 7.82166 29.2827 7.82166 25.0487Z" fill="#FCEEF0"/>
<path d="M18.9548 50H9.62867C0.409622 49.9803 -3.43978 38.183 3.82437 32.7148C-1.25581 28.9877 -1.2185 21.0155 3.88931 17.3341C-3.45561 11.8977 0.372805 0.0208984 9.62867 0H34.4333C43.6895 0.0222656 47.5125 11.8908 40.1805 17.3281C40.8917 17.8603 41.5351 18.4966 42.0912 19.2272C42.7445 20.0855 42.5784 21.3109 41.72 21.9642C40.8617 22.6175 39.6362 22.4514 38.983 21.5931C37.8911 20.1586 36.2328 19.3359 34.4333 19.3359H9.62867C2.05826 19.6241 2.06401 30.4762 9.62867 30.7617H20.4197C23.0083 30.8577 23.0064 34.5728 20.4197 34.668H9.62867C2.05826 34.9561 2.06401 45.8083 9.62867 46.0937H18.9548C21.5434 46.1897 21.5416 49.9048 18.9548 50ZM9.62867 3.90625C2.05826 4.19444 2.06401 15.0466 9.62867 15.332H34.4333C42.0037 15.0438 41.998 4.1917 34.4333 3.90625H9.62867ZM34.1892 11.6211H29.5994C27.0106 11.5251 27.0126 7.80995 29.5994 7.71484H34.1892C36.7778 7.81084 36.7758 11.526 34.1892 11.6211ZM9.87281 23.1445C10.9515 23.1445 11.8259 24.0189 11.8259 25.0977C11.7302 27.6856 8.01499 27.685 7.91968 25.0977C7.91968 24.0189 8.79409 23.1445 9.87281 23.1445ZM7.91968 40.4297C7.91968 41.5084 8.79409 42.3828 9.87281 42.3828C12.4608 42.287 12.4601 38.572 9.87281 38.4766C8.79409 38.4766 7.91968 39.3509 7.91968 40.4297Z" fill="#14133B"/>
<path d="M9.77478 7.71484C10.8535 7.71484 11.7279 8.58927 11.7279 9.66797C11.6322 12.256 7.91697 12.2553 7.82166 9.66797C7.82166 8.58927 8.69606 7.71484 9.77478 7.71484ZM32.4311 50H26.767C24.1783 49.9041 24.1803 46.1889 26.767 46.0937H32.4311C32.8078 46.0937 33.1147 45.787 33.1147 45.4102V39.7461C33.2106 37.1575 36.9258 37.1594 37.0209 39.7461V45.4102C37.0209 47.9411 34.9619 50 32.4311 50ZM42.6866 48.1448C41.9933 48.1448 41.3219 47.775 40.9681 47.1228C40.4538 46.1747 40.8053 44.9891 41.7534 44.4747C49.2738 40.3506 46.3503 28.9647 37.8019 28.9062C31.8731 28.8042 27.563 35.3937 30.3808 40.7512C30.8503 41.7223 30.4437 42.8903 29.4727 43.36C28.5014 43.8297 27.3336 43.4231 26.8639 42.4519C22.7689 34.5909 29.0562 24.8353 37.8022 25.0002C50.3812 25.0853 54.6655 41.8462 43.6162 47.9081C43.3203 48.0687 43.0013 48.1448 42.6866 48.1448Z" fill="#FF455C"/>
</g>
<defs>
<clipPath id="clip0_5_1450">
<rect width="50" height="50" fill="white"/>
</clipPath>
</defs>
</svg>
