<svg width="50" height="50" viewBox="0 0 50 50" fill="none" xmlns="http://www.w3.org/2000/svg">
<g clip-path="url(#clip0_5_1432)">
<path d="M48.0469 42.1875H40.2344C39.1556 42.1875 38.2812 43.0619 38.2812 44.1406C38.2812 45.2194 39.1556 46.0937 40.2344 46.0937H48.0469C49.1256 46.0937 50 45.2194 50 44.1406C50 43.0619 49.1256 42.1875 48.0469 42.1875Z" fill="#FF455C"/>
<path d="M28.5156 38.2812C25.9694 38.2812 23.7986 39.9142 22.9922 42.1875H1.95312C0.874414 42.1875 0 43.0619 0 44.1406C0 45.2194 0.874414 46.0937 1.95312 46.0937H22.9922C23.7984 48.367 25.9694 50 28.5156 50C31.7464 50 34.375 47.3714 34.375 44.1406C34.375 40.9098 31.7464 38.2812 28.5156 38.2812ZM28.5156 46.0937C27.4386 46.0937 26.5625 45.2175 26.5625 44.1406C26.5625 43.0637 27.4386 42.1875 28.5156 42.1875C29.5927 42.1875 30.4688 43.0637 30.4688 44.1406C30.4688 45.2175 29.5927 46.0937 28.5156 46.0937Z" fill="#14133B"/>
<path d="M7.8125 25.3906V9.76562C7.8125 5.45087 11.3103 1.95312 15.625 1.95312H9.76562C5.45088 1.95312 1.95312 5.45087 1.95312 9.76562V25.3906C1.95312 29.7053 5.45088 33.2031 9.76562 33.2031H15.625C11.3103 33.2031 7.8125 29.7053 7.8125 25.3906Z" fill="#FBE4E8"/>
<path d="M40.2344 35.1562H9.76562C4.38086 35.1562 0 30.7755 0 25.3906V9.76562C0 4.38086 4.38086 0 9.76562 0H40.2344C45.6192 0 50 4.38086 50 9.76562V25.3906C50 30.7755 45.6192 35.1562 40.2344 35.1562ZM9.76562 3.90625C6.53477 3.90625 3.90625 6.53477 3.90625 9.76562V25.3906C3.90625 28.6214 6.53477 31.25 9.76562 31.25H40.2344C43.4652 31.25 46.0938 28.6214 46.0938 25.3906V9.76562C46.0938 6.53477 43.4652 3.90625 40.2344 3.90625H9.76562Z" fill="#14133B"/>
<path d="M17.5781 27.3437C16.4994 27.3437 15.625 26.4694 15.625 25.3906C15.625 22.1598 12.9965 19.5312 9.76562 19.5312C8.68692 19.5312 7.8125 18.6569 7.8125 17.5781C7.8125 16.4994 8.68692 15.625 9.76562 15.625C12.7321 15.625 15.394 16.9548 17.1866 19.0492C19.4759 14.6951 24.0455 11.7188 29.2969 11.7188H32.4219C33.5006 11.7188 34.375 12.5932 34.375 13.6719C34.375 14.7506 33.5006 15.625 32.4219 15.625H29.2969C23.9122 15.625 19.5312 20.0059 19.5312 25.3906C19.5312 26.4694 18.6569 27.3437 17.5781 27.3437Z" fill="#FF455C"/>
<path d="M36.3281 19.5312C33.0973 19.5312 30.4688 16.9027 30.4688 13.6719C30.4688 10.441 33.0973 7.8125 36.3281 7.8125C39.5589 7.8125 42.1875 10.441 42.1875 13.6719C42.1875 16.9027 39.5589 19.5312 36.3281 19.5312ZM36.3281 11.7187C35.2512 11.7187 34.375 12.5949 34.375 13.6719C34.375 14.7488 35.2512 15.625 36.3281 15.625C37.405 15.625 38.2812 14.7488 38.2812 13.6719C38.2812 12.5949 37.405 11.7187 36.3281 11.7187Z" fill="#FF455C"/>
</g>
<defs>
<clipPath id="clip0_5_1432">
<rect width="50" height="50" fill="white"/>
</clipPath>
</defs>
</svg>
