<svg width="33" height="32" viewBox="0 0 33 32" fill="none" xmlns="http://www.w3.org/2000/svg">
<mask id="mask0_5_1471" style="mask-type:luminance" maskUnits="userSpaceOnUse" x="0" y="0" width="33" height="32">
<path d="M0.599976 0H32.6V32H0.599976V0Z" fill="white"/>
</mask>
<g mask="url(#mask0_5_1471)">
<path d="M7.37335 0H8.81602V1.42533H10.136V0H11.5787V4.31467H10.136V2.87067H8.81602V4.31467H7.37469L7.37335 0ZM13.4747 1.43067H12.2054V0H16.188V1.43067H14.9174V4.31467H13.4747V1.43067ZM16.82 0H18.324L19.2494 1.516L20.1734 0H21.6774V4.31467H20.2414V2.176L19.2494 3.71067H19.224L18.2307 2.17733V4.31467H16.82V0ZM22.3947 0H23.8387V2.88933H25.8654V4.316H22.3947V0Z" fill="#333333"/>
<path fillRule="evenodd" clip-rule="evenodd" d="M7.32804 29.4291L4.60004 6.28906H28.6L25.8707 29.4264L16.5867 31.9997L7.32804 29.4291ZM12.844 16.7624L12.5854 13.8557H23.4454L23.6987 11.0184H9.48537L10.2507 19.6011H20.0867L19.7574 23.2811L16.592 24.1371H16.5894L13.4294 23.2837L13.2267 21.0211H10.376L10.7734 25.4771L16.5867 27.0904L22.4094 25.4771L23.1187 17.5251L23.188 16.7637L12.844 16.7624Z" fill="#333333"/>
</g>
</svg>
