<svg width="50" height="50" viewBox="0 0 50 50" fill="none" xmlns="http://www.w3.org/2000/svg">
<g clip-path="url(#clip0_5_1428)">
<path d="M17.2852 42.1875H11.3828C10.7934 40.5256 9.47452 39.2067 7.8125 38.6172V32.7148C7.8125 31.6361 6.93808 30.7617 5.85938 30.7617C4.78067 30.7617 3.90625 31.6361 3.90625 32.7148V38.6172C1.63302 39.4236 0 41.5944 0 44.1406C0 47.3714 2.62852 50 5.85938 50C8.40556 50 10.5765 48.367 11.3828 46.0938H17.2852C18.3639 46.0938 19.2383 45.2194 19.2383 44.1406C19.2383 43.0619 18.3639 42.1875 17.2852 42.1875ZM5.85938 46.0938C4.78242 46.0938 3.90625 45.2177 3.90625 44.1406C3.90625 43.0636 4.78242 42.1875 5.85938 42.1875C6.93633 42.1875 7.8125 43.0636 7.8125 44.1406C7.8125 45.2177 6.93633 46.0938 5.85938 46.0938ZM44.1406 0C41.5944 0 39.4236 1.63302 38.6172 3.90625H32.6172C31.5384 3.90625 30.6641 4.78067 30.6641 5.85938C30.6641 6.93808 31.5384 7.8125 32.6172 7.8125H38.6172C39.2067 9.47441 40.5255 10.7934 42.1875 11.3828V17.1875C42.1875 18.2663 43.0619 19.1406 44.1406 19.1406C45.2194 19.1406 46.0938 18.2663 46.0938 17.1875V11.3828C48.367 10.5766 50 8.40556 50 5.85938C50 2.62852 47.3714 0 44.1406 0ZM44.1406 7.8125C43.0636 7.8125 42.1875 6.93633 42.1875 5.85938C42.1875 4.78242 43.0636 3.90625 44.1406 3.90625C45.2177 3.90625 46.0938 4.78242 46.0938 5.85938C46.0938 6.93633 45.2177 7.8125 44.1406 7.8125ZM46.582 25.1953C46.582 26.5436 45.4889 27.6367 44.1406 27.6367C42.7923 27.6367 41.6992 26.5436 41.6992 25.1953C41.6992 23.847 42.7923 22.7539 44.1406 22.7539C45.4889 22.7539 46.582 23.847 46.582 25.1953ZM29.3945 27.1484C29.3945 28.4967 28.3014 29.5898 26.9531 29.5898C25.6048 29.5898 24.5117 28.4967 24.5117 27.1484C24.5117 25.8002 25.6048 24.707 26.9531 24.707C28.3014 24.707 29.3945 25.8002 29.3945 27.1484ZM17.2852 3.90625H11.3828C10.5765 1.63302 8.40556 0 5.85938 0C2.62852 0 0 2.62852 0 5.85938C0 8.40556 1.63302 10.5765 3.90625 11.3828V17.1875C3.90625 18.2663 4.78067 19.1406 5.85938 19.1406C6.93808 19.1406 7.8125 18.2663 7.8125 17.1875V11.3828C9.47441 10.7934 10.7934 9.47452 11.3828 7.8125H17.2852C18.3639 7.8125 19.2383 6.93808 19.2383 5.85938C19.2383 4.78067 18.3639 3.90625 17.2852 3.90625ZM5.85938 7.8125C4.78242 7.8125 3.90625 6.93633 3.90625 5.85938C3.90625 4.78242 4.78242 3.90625 5.85938 3.90625C6.93633 3.90625 7.8125 4.78242 7.8125 5.85938C7.8125 6.93633 6.93633 7.8125 5.85938 7.8125ZM27.3438 44.1406C27.3438 45.4889 26.2506 46.582 24.9023 46.582C23.5541 46.582 22.4609 45.4889 22.4609 44.1406C22.4609 42.7923 23.5541 41.6992 24.9023 41.6992C26.2506 41.6992 27.3438 42.7923 27.3438 44.1406Z" fill="black"/>
<path d="M22.4609 5.85938C22.4609 4.51103 23.5541 3.41797 24.9023 3.41797C26.2506 3.41797 27.3438 4.51103 27.3438 5.85938C27.3438 7.20772 26.2506 8.30078 24.9023 8.30078C23.5541 8.30078 22.4609 7.20772 22.4609 5.85938ZM49.4341 38.9572L38.9228 28.352C38.2266 24.7981 36.5978 21.2823 34.1881 18.1459C33.6803 17.4852 32.8094 17.2194 32.0194 17.4839C28.4475 18.6795 24.0094 18.092 18.4513 15.6878C17.7273 15.3748 16.8863 15.5278 16.3189 16.0756C15.7517 16.6236 15.5696 17.4589 15.8575 18.1934C17.8095 23.1728 18.3531 27.9944 17.4297 32.1369C17.2827 32.7963 17.4869 33.4848 17.9697 33.9575C20.6503 36.5819 24.8447 38.6814 28.2417 39.1522L38.3548 49.4177C38.7372 49.8056 39.2416 50 39.7464 50C40.2412 50 40.7366 49.813 41.117 49.4383C41.8855 48.6812 41.8947 47.4447 41.1377 46.6761L30.533 35.912C30.1967 35.5708 29.7467 35.365 29.2686 35.3339C26.9569 35.1833 23.7092 33.7073 21.4634 31.8494C22.0391 28.3922 21.8083 24.6222 20.7923 20.7378C23.4427 21.5741 25.8853 21.9908 28.1488 21.9906C29.4419 21.9906 30.6769 21.8545 31.857 21.583C33.3847 23.8183 34.4534 26.2264 34.9944 28.65L32.7011 30.9433C31.9383 31.7061 31.9383 32.9427 32.7011 33.7053C33.4639 34.4681 34.7005 34.4681 35.4631 33.7053L37.1033 32.0652L46.6597 41.707C47.0416 42.0923 47.5441 42.2852 48.0469 42.2852C48.5438 42.2852 49.0409 42.0967 49.4217 41.7192C50.188 40.9598 50.1933 39.7233 49.4341 38.9572ZM5.85938 22.7539C4.51103 22.7539 3.41797 23.847 3.41797 25.1953C3.41797 26.5436 4.51103 27.6367 5.85938 27.6367C7.20772 27.6367 8.30078 26.5436 8.30078 25.1953C8.30078 23.847 7.20772 22.7539 5.85938 22.7539Z" fill="#FF455C"/>
</g>
<defs>
<clipPath id="clip0_5_1428">
<rect width="50" height="50" fill="white"/>
</clipPath>
</defs>
</svg>
