<svg width="40" height="50" viewBox="0 0 40 50" fill="none" xmlns="http://www.w3.org/2000/svg">
<g clipPath="url(#clip0_5_1440)">
<g opacity="0.8">
<path opacity="0.8" d="M14.5418 13.1836C14.5418 8.19111 17.7497 3.96036 22.186 2.49931C21.1108 2.14531 19.9638 1.95312 18.7725 1.95312C12.6655 1.95312 7.71484 6.98116 7.71484 13.1836C7.71484 19.3861 12.6655 24.4141 18.7725 24.4141C19.9638 24.4141 21.1108 24.2219 22.186 23.8678C17.7497 22.4069 14.5418 18.1761 14.5418 13.1836Z" fill="#FBE4E8"/>
</g>
<path d="M37.0192 50C35.9571 50 35.0962 49.1256 35.0962 48.0469C35.0962 40.4005 28.9711 34.1797 21.4423 34.1797H18.5577C11.0289 34.1797 4.90385 40.4005 4.90385 48.0469C4.90385 49.1256 4.04288 50 2.98077 50C1.91866 50 1.05769 49.1256 1.05769 48.0469C1.05769 38.2466 8.90817 30.2734 18.5577 30.2734H21.4423C31.0918 30.2734 38.9423 38.2466 38.9423 48.0469C38.9423 49.1256 38.0814 50 37.0192 50Z" fill="#FF455C"/>
<path d="M19.8077 26.3672C12.6501 26.3672 6.82693 20.453 6.82693 13.1836C6.82693 5.91416 12.6501 0 19.8077 0C26.9652 0 32.7885 5.91416 32.7885 13.1836C32.7885 20.453 26.9652 26.3672 19.8077 26.3672ZM19.8077 3.90625C14.7709 3.90625 10.6731 8.06806 10.6731 13.1836C10.6731 18.2991 14.7709 22.4609 19.8077 22.4609C24.8445 22.4609 28.9423 18.2991 28.9423 13.1836C28.9423 8.06806 24.8445 3.90625 19.8077 3.90625Z" fill="#14133B"/>
</g>
<defs>
<clipPath id="clip0_5_1440">
<rect width="40" height="50" fill="white"/>
</clipPath>
</defs>
</svg>
