<svg width="38" height="50" viewBox="0 0 38 50" fill="none" xmlns="http://www.w3.org/2000/svg">
<g clipPath="url(#clip0_5_1445)">
<path d="M9.10416 17.5781C9.10416 9.95019 14.6434 3.6 21.9687 2.22852C21.007 2.04844 20.0147 1.95312 19 1.95312C10.2555 1.95312 3.16666 8.94862 3.16666 17.5781C3.16666 26.2077 10.2555 33.2031 19 33.2031C20.0147 33.2031 21.007 33.1077 21.9687 32.9277C14.6435 31.5562 9.10416 25.2061 9.10416 17.5781Z" fill="#FCEEF0"/>
<path d="M19 35.1562C28.8219 35.1562 36.8125 27.2708 36.8125 17.5781C36.8125 7.88555 28.8219 0 19 0C9.17819 0 1.1875 7.88555 1.1875 17.5781C1.1875 27.2708 9.17819 35.1562 19 35.1562ZM19 3.90625C26.6393 3.90625 32.8542 10.0395 32.8542 17.5781C32.8542 25.1169 26.6393 31.25 19 31.25C11.3608 31.25 5.14583 25.1169 5.14583 17.5781C5.14583 10.0395 11.3608 3.90625 19 3.90625Z" fill="#14133B"/>
<path d="M11.0833 36.9424C9.99024 36.9424 9.10416 37.8168 9.10416 38.8955V48.0464C9.10416 48.8364 9.58638 49.5486 10.326 49.851C11.0655 50.1533 11.9168 49.9863 12.4829 49.4277L19 42.9961L25.5172 49.4275C26.0853 49.9882 26.9372 50.1522 27.674 49.851C28.4135 49.5486 28.8958 48.8364 28.8958 48.0464V38.8955C28.8958 37.8168 28.0098 36.9424 26.9167 36.9424C25.8235 36.9424 24.9375 37.8168 24.9375 38.8955V43.3313L20.3995 38.853C19.6267 38.0902 18.3733 38.0902 17.6005 38.853L13.0625 43.3313V38.8955C13.0625 37.8169 12.1764 36.9424 11.0833 36.9424Z" fill="#14133B"/>
<path d="M17.0208 23.4375C17.5272 23.4375 18.0339 23.2469 18.4204 22.8655L26.337 15.053C27.1098 14.2903 27.1098 13.0536 26.337 12.2908C25.564 11.5281 24.3108 11.5281 23.538 12.2908L17.0208 18.7223L14.462 16.197C13.6891 15.4343 12.4359 15.4343 11.663 16.197C10.8901 16.9598 10.8901 18.1966 11.663 18.9592L15.6213 22.8655C16.0078 23.2469 16.5143 23.4375 17.0208 23.4375Z" fill="#FF455C"/>
</g>
<defs>
<clipPath id="clip0_5_1445">
<rect width="38" height="50" fill="white"/>
</clipPath>
</defs>
</svg>
