<svg width="48" height="32" viewBox="0 0 48 32" fill="none" xmlns="http://www.w3.org/2000/svg">
<path d="M4.77004 30.2222H3.92671C2.86337 30.2222 2.02004 29.3703 2.02004 28.2963C2.02004 27.1852 2.90004 26.2963 4.00004 26.2963H4.77004V24.7407H3.74337C1.87337 24.7407 0.333374 26.2963 0.333374 28.1852C0.333374 30.2963 2.02004 31.9999 4.11004 31.9999H4.77004V30.2222ZM42.83 30.2222H41.9867C40.9234 30.2222 40.08 29.3703 40.08 28.2963C40.08 27.1852 40.96 26.2963 42.06 26.2963H42.83V24.7407H41.7667C39.8967 24.7407 38.3567 26.2963 38.3567 28.1852C38.3567 30.2963 40.0434 31.9999 42.1334 31.9999H42.7934V30.2222H42.83ZM8.43671 24.7407C6.78671 24.7407 5.46671 26.3703 5.46671 28.3703C5.46671 30.3703 6.78671 31.9999 8.43671 31.9999C10.0867 31.9999 11.4067 30.3703 11.4067 28.3703C11.4067 26.3703 10.0867 24.7407 8.43671 24.7407ZM8.43671 30.6296C7.70337 30.6296 7.15337 29.6296 7.15337 28.4074C7.15337 27.1852 7.74004 26.1852 8.43671 26.1852C9.17004 26.1852 9.72004 27.1852 9.72004 28.4074C9.72004 29.6296 9.13337 30.6296 8.43671 30.6296ZM11.4067 31.9999L12.5434 24.7407H14.9267L15.6234 28.3703L16.54 24.7407H18.74L19.8034 31.9999H17.97L17.3834 27.074L16.3934 31.9999H15.1467L13.79 27.1481L13.1667 31.9999H11.4067ZM20.2067 31.9999L21.3434 24.7407H23.7267L24.3867 28.3703L25.3034 24.7407H27.54L28.6034 31.9999H26.77L26.1467 27.074L25.1567 31.9999H23.9467L22.5534 27.1481L21.9667 31.9999H20.2067ZM28.8967 31.9999V24.7407H32.6367V26.1481H30.7667V27.7037H32.4167V29.037H30.5467V30.4444H32.6367V31.9999H28.8967ZM43.5267 31.9999V24.7407H47.2667V26.1481H45.3967V27.7037H47.0467V29.037H45.1767V30.4444H47.2667V31.9999H43.5267Z" fill="#333333"/>
<path d="M37.0001 28.6296C37.5867 28.6296 38.1001 28.1481 38.1001 27.5185V26.8518C38.1001 25.6666 37.1467 24.7407 36.0101 24.7407H33.2967V31.9999H34.9834V28.5925L36.8167 31.9999H38.6867L37.0001 28.6296ZM35.5701 27.9999H34.9467V26.2222H35.6434C36.1201 26.2222 36.4867 26.5925 36.4867 27.074C36.4501 27.5925 36.0467 27.9999 35.5701 27.9999ZM27.6134 6.25929C26.9167 6.18522 25.6334 6.55559 25.0467 9.44446C25.0467 11.2222 25.4501 12.2593 26.1101 12.6296C27.3201 13 28.7501 11.3704 28.7501 9.59261C28.7867 8.44447 28.8601 6.92595 27.6134 6.25929ZM37.0001 6.25929C36.3034 6.18522 35.0201 6.55559 34.4334 9.44446C34.4334 11.2222 34.8367 12.2593 35.4967 12.6296C36.7067 13 38.1367 11.3704 38.1367 9.59261C38.2101 8.44447 38.2467 6.92595 37.0001 6.25929Z" fill="#333333"/>
<path d="M38.4667 0H9.2434C6.89673 0 4.9534 1.92592 4.9534 4.33331V14.4814C4.9534 16.8518 6.86007 18.8147 9.2434 18.8147H38.4667C40.8134 18.8147 42.7567 16.8888 42.7567 14.4814V4.29628C42.7567 1.92592 40.8134 0 38.4667 0ZM17.9701 16.074C17.9701 16.074 15.9534 13.3703 15.4401 11.3333C14.9267 9.29626 14.8534 10.2222 14.8534 10.2222C14.8534 10.2222 13.2401 13.8888 11.5534 16.2222C9.86673 18.5555 9.0234 15.074 9.0234 15.074C8.43673 14.3703 6.75007 3.99998 6.75007 3.99998C7.7034 1.37036 9.31673 3.5185 9.31673 3.5185L10.9667 11.9629C10.9667 11.9629 13.4967 6.77775 14.3034 5.48146C15.1467 4.14813 16.5767 4.5185 16.6867 5.88886C16.7967 7.25923 18.1901 11.074 18.1901 11.074C18.3001 7.11108 19.9134 3.33332 20.1701 2.70369C20.4267 2.07407 23.0301 1.37036 22.5534 3.88887C21.4167 6.70367 20.2801 12.6666 20.5734 15.9259C19.8401 18.4073 17.9701 16.074 17.9701 16.074ZM28.5301 14.7407C27.7601 15.111 24.9001 17.074 22.8834 12.6296C21.6001 8.14811 24.4234 4.85183 24.4234 4.85183C24.4234 4.85183 28.1267 1.66666 30.6567 5.88886C32.6734 10.5185 29.3001 14.3703 28.5301 14.7407ZM37.9534 14.7407C37.1834 15.111 34.3234 17.074 32.3067 12.6296C31.0234 8.14811 33.8467 4.85183 33.8467 4.85183C33.8467 4.85183 37.5501 1.66666 40.0801 5.88886C42.0967 10.5185 38.7234 14.3703 37.9534 14.7407Z" fill="#333333"/>
<path d="M23.0667 18.7782L29.63 22.667L28.2734 18.7782L24.4967 17.7041L23.0667 18.7782Z" fill="#333333"/>
</svg>
