<svg width="32" height="32" viewBox="0 0 32 32" fill="none" xmlns="http://www.w3.org/2000/svg">
<g clipPath="url(#clip0_5_1462)">
<path d="M25.266 15.3059C25.266 13.6099 24.656 12.4359 24.134 11.5219L23.974 11.2619C23.34 10.2419 22.786 9.34594 22.786 8.30194C22.786 7.04194 23.742 5.86594 25.09 5.86594C25.13 5.86594 25.168 5.86994 25.206 5.87194L25.268 5.87794C22.7403 3.55622 19.4321 2.26976 16 2.27394C13.7253 2.27277 11.4861 2.83758 9.48414 3.91748C7.48216 4.99737 5.78033 6.55842 4.532 8.45994C4.852 8.46994 5.158 8.47794 5.416 8.47794C6.85 8.47794 9.072 8.30394 9.072 8.30394C9.812 8.25994 9.9 9.34594 9.16 9.43394C9.16 9.43394 8.418 9.52194 7.59 9.56394L12.59 24.4319L15.59 15.4199L13.45 9.56194C12.712 9.51794 12.012 9.43194 12.012 9.43194C11.272 9.38794 11.36 8.25594 12.098 8.29994C12.098 8.29994 14.366 8.47394 15.714 8.47394C17.15 8.47394 19.374 8.29994 19.374 8.29994C20.114 8.25594 20.2 9.34394 19.46 9.43194C19.46 9.43194 18.716 9.51794 17.89 9.56194L22.85 24.3159L24.218 19.7419L24.326 19.3959C24.866 17.6759 25.264 16.4059 25.264 15.3039L25.266 15.3059ZM2.274 15.9999C2.27386 18.5774 2.99936 21.1029 4.36746 23.2873C5.73556 25.4718 7.691 27.2269 10.01 28.3519L3.46 10.4119C2.67566 12.1703 2.27151 14.0745 2.274 15.9999Z" fill="#333333"/>
<path d="M12.122 29.1661L16.242 17.2001L20.46 28.7601C20.488 28.8261 20.52 28.8881 20.558 28.9481C17.8389 29.906 14.887 29.9823 12.122 29.1661ZM28.042 9.41406C28.102 9.85206 28.136 10.3201 28.136 10.8261C28.136 12.2181 27.876 13.7841 27.092 15.7421L22.9 27.8621C25.9934 26.0648 28.2625 23.1303 29.2234 19.6841C30.1843 16.2379 29.7611 12.5527 28.044 9.41406H28.042Z" fill="#333333"/>
<path fillRule="evenodd" clipRule="evenodd" d="M0 16C0 7.178 7.178 0 16 0C24.82 0 32 7.178 32 16C32 24.822 24.82 32 16 32C7.178 32 0 24.822 0 16ZM0.734 16C0.734 24.418 7.582 31.266 16 31.266C24.416 31.266 31.264 24.418 31.264 16C31.264 7.58 24.416 0.734 16 0.734C7.58 0.734 0.734 7.58 0.734 16Z" fill="#333333"/>
</g>
<defs>
<clipPath id="clip0_5_1462">
<rect width="32" height="32" fill="white"/>
</clipPath>
</defs>
</svg>
