<svg width="187" height="38" viewBox="0 0 187 38" fill="none" xmlns="http://www.w3.org/2000/svg">
<mask id="mask0_1_1307" style="mask-type:luminance" maskUnits="userSpaceOnUse" x="0" y="0" width="187" height="38">
<path d="M186.457 0H0V37.069H186.457V0Z" fill="white"/>
</mask>
<g mask="url(#mask0_1_1307)">
<path d="M73.2246 3.70975H59.7887C57.593 3.70975 56.2217 4.0907 55.6777 4.85355C55.3631 5.3181 55.2032 6.3726 55.2032 8.01515C55.2032 8.8787 55.6164 9.55035 56.4418 10.032C57.1265 10.412 58.2415 10.6039 59.7877 10.6039H65.3454C67.7161 10.6039 69.6133 11.0523 71.0369 11.9491C72.4585 12.844 73.1703 14.1065 73.1703 15.732V19.666C73.1703 21.3759 72.4404 22.687 70.9836 23.6008C69.5248 24.5138 67.5311 24.9689 65.0036 24.9689H50.0135V21.3351H63.4493C65.6802 21.3351 67.0687 20.919 67.6126 20.0887C67.8579 19.6583 67.9826 18.5373 67.9826 16.7285C67.9826 15.0366 66.5227 14.1883 63.6071 14.1883H58.0484C55.7471 14.1883 53.859 13.774 52.3841 12.9428C50.7695 12.0308 49.9602 10.7853 49.9602 9.2093V5.32665C49.9602 3.58435 50.8389 2.19735 52.5963 1.1685C53.8248 0.43795 55.6074 0.0750501 57.9429 0.0750501H73.2236L73.2246 3.70975Z" fill="#272D3E"/>
<path d="M89.9269 9.6577H84.0515V24.9689H79.4137V0H84.0515V6.52365H89.9269V9.6577Z" fill="#272D3E"/>
<path d="M106.867 9.2112C103.285 9.2112 101.202 9.2758 100.623 9.40975C99.3925 9.75745 98.7792 10.5963 98.7792 11.9234V24.871H93.9826V11.0523C93.9826 7.68455 96.485 6.00115 101.491 6.00115H106.867V9.2112Z" fill="#272D3E"/>
<path d="M133.634 20.3386C133.634 21.9317 132.878 23.1505 131.367 23.9979C130.298 24.6468 128.681 24.9689 126.523 24.9689H118.485C116.028 24.9689 114.187 24.5537 112.967 23.7243C111.748 22.894 111.137 21.7645 111.137 20.3386V11.0038C111.137 9.37745 111.911 8.11585 113.456 7.22095C114.578 6.57115 116.255 6.25005 118.487 6.25005H126.525C128.753 6.25005 130.388 6.57305 131.424 7.22095C132.899 8.0674 133.637 9.329 133.637 11.0038V20.3386H133.634ZM128.999 19.4674V11.875C128.999 11.0124 128.639 10.3826 127.919 9.9826C127.341 9.60165 126.443 9.40975 125.23 9.40975H119.723C118.456 9.40975 117.52 9.59975 116.904 9.9826C116.148 10.3826 115.77 11.0124 115.77 11.875V19.418C115.77 20.2303 116.148 20.8363 116.904 21.2344C117.483 21.5811 118.309 21.7578 119.379 21.7578H125.545C126.582 21.7578 127.371 21.5811 127.917 21.2344C128.637 20.8373 128.999 20.2474 128.999 19.4674Z" fill="#272D3E"/>
<path d="M144.171 24.9689H139.537V0H144.171V24.9689ZM160.848 24.9689H155.13L145.251 16.6792C144.709 16.2479 144.433 15.8308 144.433 15.4328C144.433 15.0015 144.74 14.5198 145.356 13.9888L154.681 6.2947H160.24L149.411 15.4309L160.848 24.9689Z" fill="#272D3E"/>
<path d="M186.457 13.641L168.7 18.5963V19.2176C168.7 20.196 169.096 20.9095 169.885 21.3598C170.431 21.6248 171.371 21.7578 172.707 21.7578H186.405V24.9689H171.837C169.323 24.9689 167.472 24.6117 166.278 23.8982C164.766 23.0508 164.014 21.7075 164.014 19.8654V11.0038C164.014 7.83275 166.48 6.24815 171.415 6.24815H179.556C184.159 6.24815 186.458 7.9325 186.458 11.3012L186.457 13.641ZM181.716 11.8246V11.5501C181.716 10.1232 180.485 9.40975 178.026 9.40975H172.917C170.069 9.40975 168.648 10.2163 168.648 11.8246V15.485L181.716 11.8246Z" fill="#272D3E"/>
<path d="M129.96 36.973H128.723V31.0812H129.96V36.973Z" fill="#818F9E"/>
<path d="M138.38 36.2681C138.38 36.4914 138.296 36.6767 138.126 36.8201C137.94 36.9864 137.688 37.069 137.374 37.069C137.079 37.069 136.85 37.0054 136.689 36.879C136.62 36.8249 136.496 36.6662 136.316 36.404L133.439 32.2639V36.9883H132.257V31.958C132.257 31.3842 132.591 31.1002 133.265 31.1002C133.571 31.1002 133.803 31.16 133.959 31.2826C134.046 31.3462 134.176 31.5049 134.344 31.7576L137.2 35.8939V31.1534H138.38V36.2681Z" fill="#818F9E"/>
<path d="M146.213 34.4698H141.922V36.9731H140.685V32.3019C140.685 31.9238 140.875 31.6151 141.256 31.3804C141.563 31.2009 142.016 31.1106 142.618 31.1106H146.212V31.9675H142.953C142.265 31.9675 141.922 32.1689 141.922 32.5727V33.6234H146.214L146.213 34.4698Z" fill="#818F9E"/>
<path d="M154.657 35.6393C154.657 36.5285 153.979 36.9721 152.625 36.9721H150.756C150.101 36.9721 149.61 36.8733 149.287 36.6786C148.898 36.443 148.704 36.101 148.704 35.6497V32.4425C148.704 31.996 148.901 31.6502 149.301 31.4042C149.616 31.199 150.101 31.0983 150.756 31.0983H152.639C153.986 31.0983 154.66 31.5467 154.66 32.4425V35.6393H154.657ZM153.44 35.4265V32.6895C153.44 32.4159 153.353 32.2259 153.183 32.1176C153.013 32.0093 152.733 31.9561 152.344 31.9561H151.046C150.648 31.9561 150.362 32.0102 150.192 32.1176C150.023 32.224 149.938 32.415 149.938 32.6895V35.4036C149.938 35.6468 150.031 35.8321 150.216 35.9623C150.37 36.063 150.647 36.1143 151.044 36.1143H152.342C152.726 36.1143 153.001 36.063 153.176 35.9623C153.353 35.8606 153.44 35.683 153.44 35.4265Z" fill="#818F9E"/>
<path d="M161.829 31.9381H159.714V36.973H158.477V31.9381H156.376V31.0812H161.829V31.9381Z" fill="#818F9E"/>
<path d="M168.801 34.4651H164.767V35.4569C164.767 35.8958 165.126 36.1143 165.849 36.1143H169.044V36.9712H165.513C164.904 36.9712 164.429 36.8724 164.089 36.6729C163.714 36.4487 163.527 36.1342 163.527 35.7276V32.4197C163.527 32.0131 163.694 31.693 164.024 31.4593C164.357 31.2265 164.815 31.1106 165.399 31.1106H169.042V31.9675H165.835C165.124 31.9675 164.765 32.1832 164.765 32.6145V33.6196H168.8L168.801 34.4651Z" fill="#818F9E"/>
<path d="M177.161 31.9504H173.904C173.548 31.9504 173.294 31.996 173.138 32.0881C172.951 32.2078 172.859 32.3769 172.859 32.5916V35.3704C172.859 35.6487 172.943 35.8425 173.109 35.9499C173.274 36.0601 173.56 36.1161 173.967 36.1161H177.15V36.973H173.508C172.907 36.973 172.441 36.8571 172.113 36.6234C171.788 36.3926 171.625 36.0667 171.625 35.6525V32.4045C171.625 31.9181 171.8 31.5723 172.147 31.3633C172.445 31.1837 172.931 31.0944 173.608 31.0944H177.162L177.161 31.9504Z" fill="#818F9E"/>
<path d="M185.714 36.973H184.482V34.465H180.763V36.973H179.527V31.0983H180.763V33.6177H184.482V31.0983H185.714V36.973Z" fill="#818F9E"/>
<path d="M41.4989 0.00854993H9.17908C7.64589 0.00854993 6.40525 1.18275 6.40525 2.63245C6.40525 4.08025 7.64488 5.25255 9.17908 5.25255H12.9905C14.4784 5.30005 15.6748 6.4486 15.6748 7.86505C15.6748 9.3138 14.4322 10.488 12.9 10.488H2.77484C1.24264 10.488 0 11.6612 0 13.1091C0 14.5568 1.24164 15.7329 2.77484 15.7329H28.7206C30.2518 15.7329 31.4944 14.5587 31.4944 13.1091C31.4944 11.6632 30.2528 10.488 28.7206 10.488H26.74C25.2088 10.488 23.9652 9.3157 23.9652 7.86505C23.9652 6.4486 25.1605 5.30005 26.6495 5.25255H41.4999C43.0321 5.25255 44.2748 4.08025 44.2748 2.6315C44.2748 1.1818 43.0321 0.00854993 41.4989 0.00854993Z" fill="#FF2449"/>
<path d="M41.4989 24.9679H17.6785C16.1474 24.9679 14.9047 23.7946 14.9047 22.3459C14.9047 20.899 16.1463 19.7239 17.6785 19.7239H41.4989C43.0311 19.7239 44.2738 20.8971 44.2738 22.3459C44.2738 23.7946 43.0321 24.9679 41.4989 24.9679Z" fill="#FF2449"/>
<path d="M41.4989 15.7311H36.096C34.5638 15.7311 33.3212 14.5569 33.3212 13.1072C33.3212 11.6613 34.5628 10.4861 36.096 10.4861H41.4989C43.0311 10.4861 44.2738 11.6594 44.2738 13.1072C44.2738 14.5559 43.0321 15.7311 41.4989 15.7311Z" fill="#FF2449"/>
</g>
</svg>
