<svg width="21" height="16" viewBox="0 0 21 16" fill="none" xmlns="http://www.w3.org/2000/svg">
<path d="M19.9506 0.00701958C19.8612 -0.00233986 19.771 -0.00233986 19.6816 0.00701958H1.30655C1.18878 0.00886219 1.0718 0.0267931 0.95874 0.0603295L10.4416 9.64945L19.9506 0.00701958Z" fill="#FF455C"/>
<path d="M20.9213 0.933277L11.3663 10.5957C11.1203 10.8439 10.7877 10.9833 10.4409 10.9833C10.0942 10.9833 9.76154 10.8439 9.51563 10.5957L0.0459375 1.00658C0.0168259 1.11522 0.00139039 1.22718 0 1.33977V14.6673C0 15.0207 0.138281 15.3597 0.384422 15.6096C0.630564 15.8596 0.964403 16 1.3125 16H19.6875C20.0356 16 20.3694 15.8596 20.6156 15.6096C20.8617 15.3597 21 15.0207 21 14.6673V1.33977C20.9948 1.20093 20.9682 1.06378 20.9213 0.933277ZM2.21156 14.6673H1.29938V13.7143L6.07031 8.90978L6.99563 9.84937L2.21156 14.6673ZM19.6744 14.6673H18.7556L13.9716 9.84937L14.8969 8.90978L19.6678 13.7143L19.6744 14.6673Z" fill="#FF455C"/>
</svg>
