<svg width="18" height="14" viewBox="0 0 18 14" fill="none" xmlns="http://www.w3.org/2000/svg">
<path d="M0.000120163 6.99523C0.000120163 6.71678 0.116222 6.44974 0.322887 6.25284C0.529551 6.05595 0.809847 5.94534 1.10211 5.94534L14.0131 5.94534L9.18339 1.82835C8.96751 1.64222 8.83772 1.38226 8.82237 1.10525C8.80701 0.828246 8.90735 0.556708 9.10146 0.349955C9.29557 0.143201 9.56767 0.0180366 9.85833 0.00180137C10.149 -0.0144338 10.4346 0.0795802 10.6527 0.263307L17.632 6.21271C17.7478 6.3112 17.8404 6.43188 17.9039 6.56685C17.9673 6.70183 18.0001 6.84804 18.0001 6.99593C18.0001 7.14382 17.9673 7.29004 17.9039 7.42501C17.8404 7.55999 17.7478 7.68067 17.632 7.77915L10.6527 13.7286C10.545 13.8214 10.4191 13.8931 10.2822 13.9394C10.1454 13.9857 10.0002 14.0058 9.85518 13.9985C9.71012 13.9912 9.56802 13.9567 9.43703 13.8969C9.30604 13.8371 9.18875 13.7532 9.09191 13.65C8.99507 13.5469 8.9206 13.4265 8.87276 13.2959C8.82492 13.1652 8.80467 13.0268 8.81317 12.8887C8.82167 12.7505 8.85876 12.6153 8.9223 12.4909C8.98583 12.3664 9.07456 12.2552 9.18339 12.1635L14.0131 8.04513L1.10211 8.04513C0.809847 8.04513 0.529551 7.93451 0.322887 7.73762C0.116222 7.54073 0.000120163 7.27368 0.000120163 6.99523Z" fill="#FF455C"/>
</svg>
