<svg width="16" height="16" viewBox="0 0 16 16" fill="none" xmlns="http://www.w3.org/2000/svg">
<path d="M0.808872 6.37712C2.67394 10.4419 5.98791 13.6635 10.1019 15.4111L10.7625 15.7057C11.494 16.0317 12.3171 16.0889 13.0866 15.8671C13.8561 15.6453 14.5227 15.1588 14.9689 14.4934L15.8326 13.2061C15.9677 13.0042 16.0224 12.759 15.9859 12.5188C15.9494 12.2786 15.8243 12.0607 15.6353 11.9082L12.7093 9.54564C12.6074 9.46342 12.4899 9.40265 12.364 9.367C12.238 9.33134 12.1062 9.32152 11.9763 9.33814C11.8465 9.35476 11.7214 9.39747 11.6084 9.4637C11.4955 9.52993 11.3971 9.61832 11.3191 9.72356L10.4137 10.9457C8.08961 9.7969 6.20839 7.91384 5.06097 5.58766L6.28113 4.68154C6.38628 4.60353 6.4746 4.50505 6.54078 4.39203C6.60696 4.279 6.64963 4.15376 6.66623 4.02382C6.68284 3.89387 6.67303 3.76191 6.6374 3.63586C6.60178 3.5098 6.54106 3.39225 6.4589 3.29027L4.09825 0.361892C3.94582 0.172747 3.72815 0.0475816 3.48811 0.0110518C3.24807 -0.025478 3.00306 0.0292761 2.80134 0.164528L1.50638 1.03371C0.837433 1.48267 0.349457 2.15471 0.129384 2.93012C-0.0906894 3.70553 -0.0285676 4.53395 0.304683 5.2678L0.808872 6.37712Z" fill="#FF455C"/>
</svg>
