<svg width="18" height="14" viewBox="0 0 18 14" fill="none" xmlns="http://www.w3.org/2000/svg">
<path d="M18.0001 7.00428C18.0001 7.28273 17.884 7.54977 17.6774 7.74667C17.4707 7.94356 17.1904 8.05417 16.8981 8.05417H3.98719L8.81685 12.1712C9.03274 12.3573 9.16253 12.6173 9.17788 12.8943C9.19323 13.1713 9.09289 13.4428 8.89878 13.6496C8.70468 13.8563 8.43257 13.9815 8.14192 13.9977C7.85126 14.0139 7.56567 13.9199 7.34753 13.7362L0.368247 7.7868C0.252448 7.68832 0.159794 7.56763 0.0963551 7.43266C0.0329157 7.29769 0.00012207 7.15147 0.00012207 7.00358C0.00012207 6.85569 0.0329157 6.70947 0.0963551 6.5745C0.159794 6.43952 0.252448 6.31884 0.368247 6.22036L7.34753 0.270953C7.45523 0.178095 7.58114 0.106439 7.71801 0.0601053C7.85488 0.013772 8.00002 -0.00632381 8.14507 0.000972748C8.29012 0.00826931 8.43223 0.0428143 8.56322 0.102622C8.69421 0.162429 8.81149 0.246319 8.90833 0.349465C9.00517 0.452612 9.07965 0.572981 9.12749 0.703649C9.17532 0.834316 9.19557 0.972705 9.18707 1.11086C9.17857 1.24901 9.14148 1.38419 9.07795 1.50864C9.01441 1.63309 8.92568 1.74434 8.81685 1.836L3.98719 5.95438L16.8981 5.95438C17.1904 5.95438 17.4707 6.065 17.6774 6.26189C17.884 6.45879 18.0001 6.72583 18.0001 7.00428Z" fill="#FF455C"/>
</svg>
