<svg width="18" height="18" viewBox="0 0 18 18" fill="none" xmlns="http://www.w3.org/2000/svg">
<g clipPath="url(#clip0_1_1335)">
<path d="M16.596 10.008L16.0008 9.9288C15.9809 10.0743 16.0151 10.222 16.0968 10.344L16.596 10.008ZM7.992 1.404L7.656 1.902C7.77718 1.98357 7.92395 2.01813 8.0688 1.9992L7.992 1.404ZM1.404 7.992L1.9992 8.07C2.01878 7.92491 1.98464 7.77767 1.9032 7.656L1.404 7.992ZM10.008 16.596L10.3428 16.098C10.2211 16.0166 10.0739 15.9824 9.9288 16.002L10.008 16.596ZM17.19 10.0884C17.2368 9.7404 17.2692 9.3768 17.2692 9H16.0692C16.0692 9.3084 16.0428 9.6156 16.0008 9.9288L17.19 10.0884ZM17.2692 9C17.2689 6.80697 16.3976 4.70385 14.8469 3.15315C13.2961 1.60244 11.193 0.731122 9 0.730804V1.9308C10.8748 1.93112 12.6727 2.67601 13.9983 4.00168C15.324 5.32734 16.0689 7.12523 16.0692 9H17.2692ZM9 0.730804C8.6367 0.733524 8.27396 0.759578 7.914 0.808804L8.0688 1.9992C8.3856 1.9584 8.6928 1.9308 9 1.9308V0.730804ZM8.3256 0.906004C7.44557 0.314252 6.40888 -0.00122569 5.3484 3.57875e-06V1.2C6.2028 1.2 6.9972 1.4592 7.656 1.902L8.3256 0.906004ZM5.3484 3.57875e-06C4.64599 -0.000154071 3.95044 0.138079 3.30147 0.406805C2.6525 0.675532 2.06283 1.06949 1.56616 1.56616C1.06948 2.06284 0.675528 2.6525 0.406802 3.30147C0.138075 3.95044 -0.000157515 4.646 1.34693e-07 5.3484H1.2C1.19984 4.80358 1.30704 4.26407 1.51546 3.76069C1.72388 3.25732 2.02944 2.79994 2.41469 2.41469C2.79993 2.02944 3.25731 1.72388 3.76069 1.51546C4.26407 1.30704 4.80358 1.19985 5.3484 1.2V3.57875e-06ZM1.34693e-07 5.3484C1.34693e-07 6.45 0.3348 7.4748 0.906 8.3256L1.9032 7.656C1.44442 6.97397 1.19875 6.17038 1.2 5.3484H1.34693e-07ZM0.81 7.9128C0.759678 8.27306 0.73322 8.63625 0.7308 9H1.9308C1.9308 8.6916 1.9572 8.3844 1.9992 8.07L0.81 7.9128ZM0.7308 9C0.7308 11.1931 1.60202 13.2964 3.15279 14.8472C4.70357 16.398 6.80687 17.2692 9 17.2692V16.0692C7.12513 16.0692 5.32705 15.3244 4.00132 13.9987C2.67559 12.673 1.9308 10.8749 1.9308 9H0.7308ZM9 17.2692C9.3768 17.2692 9.7392 17.2368 10.0872 17.19L9.9288 16.002C9.62101 16.0448 9.31074 16.0673 9 16.0692V17.2692ZM9.6732 17.094C10.5252 17.6664 11.55 18 12.6528 18V16.8C11.83 16.8015 11.0256 16.557 10.3428 16.098L9.6732 17.094ZM12.6528 18C14.0709 17.9997 15.4308 17.4362 16.4335 16.4335C17.4362 15.4308 17.9997 14.0709 18 12.6528H16.8C16.7997 13.7526 16.3626 14.8073 15.585 15.585C14.8073 16.3626 13.7526 16.7997 12.6528 16.8V18ZM18 12.6528C18.0009 11.5918 17.685 10.5547 17.0928 9.6744L16.0968 10.344C16.5408 11.004 16.8 11.796 16.8 12.6528H18ZM8.4 9.6H9.6V8.4H8.4V9.6ZM11.9364 6.3312C11.7062 5.87109 11.3525 5.48414 10.9148 5.2137C10.4772 4.94326 9.97287 4.80001 9.4584 4.8V6C10.0536 6 10.5972 6.336 10.8624 6.8688L11.9364 6.3312ZM10.8 10.8C10.8 11.1183 10.6736 11.4235 10.4485 11.6485C10.2235 11.8736 9.91826 12 9.6 12V13.2C10.2365 13.2 10.847 12.9471 11.2971 12.4971C11.7471 12.047 12 11.4365 12 10.8H10.8ZM9.6 9.6C9.91826 9.6 10.2235 9.72643 10.4485 9.95148C10.6736 10.1765 10.8 10.4817 10.8 10.8H12C12 10.1635 11.7471 9.55303 11.2971 9.10295C10.847 8.65286 10.2365 8.4 9.6 8.4V9.6ZM8.5416 12C7.9464 12 7.4016 11.664 7.1376 11.1312L6.0636 11.6688C6.29377 12.1289 6.64749 12.5159 7.08515 12.7863C7.52281 13.0567 8.02712 13.2 8.5416 13.2V12ZM6 7.2C6 7.83652 6.25286 8.44697 6.70294 8.89706C7.15303 9.34715 7.76348 9.6 8.4 9.6V8.4C8.08174 8.4 7.77652 8.27358 7.55147 8.04853C7.32643 7.82349 7.2 7.51826 7.2 7.2H6ZM7.2 7.2C7.2 6.88174 7.32643 6.57652 7.55147 6.35148C7.77652 6.12643 8.08174 6 8.4 6V4.8C7.76348 4.8 7.15303 5.05286 6.70294 5.50295C6.25286 5.95303 6 6.56348 6 7.2H7.2ZM9.6 12H8.5416V13.2H9.6V12ZM9.4584 4.8H8.4V6H9.4584V4.8Z" fill="#FF455C"/>
</g>
<defs>
<clipPath id="clip0_1_1335">
<rect width="18" height="18" fill="white"/>
</clipPath>
</defs>
</svg>
