<?xml version="1.0" encoding="utf-8"?>
<!-- Generator: Adobe Illustrator 16.0.0, SVG Export Plug-In . SVG Version: 6.00 Build 0)  -->
<!DOCTYPE svg PUBLIC "-//W3C//DTD SVG 1.1//EN" "http://www.w3.org/Graphics/SVG/1.1/DTD/svg11.dtd">
<svg version="1.1" id="Layer_1" xmlns="http://www.w3.org/2000/svg" xmlns:xlink="http://www.w3.org/1999/xlink" x="0px" y="0px"
	 width="247.087px" height="84.241px" viewBox="0 0 247.087 84.241" enable-background="new 0 0 247.087 84.241"
	 xml:space="preserve">
<g>
	<path d="M95.977,30.232H78.366c-2.878,0-4.674,0.53-5.387,1.589c-0.415,0.646-0.622,2.106-0.622,4.386
		c0,1.197,0.541,2.129,1.623,2.797c0.898,0.529,2.359,0.795,4.386,0.795h7.286c3.108,0,5.594,0.621,7.459,1.864
		s2.797,2.993,2.797,5.249v5.455c0,2.372-0.956,4.191-2.866,5.457c-1.911,1.266-4.523,1.898-7.839,1.898H65.554v-5.041h17.611
		c2.923,0,4.742-0.575,5.456-1.727c0.322-0.599,0.483-2.152,0.483-4.662c0-2.348-1.911-3.521-5.732-3.521h-7.286
		c-3.016,0-5.491-0.576-7.424-1.727c-2.118-1.267-3.177-2.993-3.177-5.181v-5.387c0-2.417,1.151-4.339,3.453-5.767
		c1.611-1.014,3.948-1.52,7.01-1.52h20.028V30.232z"/>
	<path d="M117.87,38.486h-7.701v21.236h-6.077V25.088h6.077v9.047h7.701V38.486z"/>
	<path d="M140.074,37.864c-4.695,0-7.424,0.093-8.184,0.276c-1.611,0.483-2.417,1.646-2.417,3.488v17.956h-6.285V40.42
		c0-4.674,3.281-7.01,9.841-7.01h7.045V37.864z"/>
	<path d="M175.158,53.301c0,2.209-0.99,3.901-2.969,5.076c-1.404,0.897-3.523,1.346-6.354,1.346h-10.533
		c-3.223,0-5.635-0.574-7.234-1.727c-1.6-1.15-2.4-2.716-2.4-4.695v-12.95c0-2.256,1.014-4.005,3.039-5.249
		c1.473-0.897,3.672-1.346,6.596-1.346h10.533c2.922,0,5.064,0.448,6.422,1.346c1.934,1.174,2.9,2.924,2.9,5.249V53.301z
		 M169.082,52.092V41.56c0-1.196-0.473-2.072-1.416-2.624c-0.76-0.529-1.934-0.795-3.523-0.795h-7.217
		c-1.658,0-2.889,0.266-3.695,0.795c-0.99,0.552-1.484,1.428-1.484,2.624v10.463c0,1.128,0.494,1.968,1.484,2.521
		c0.76,0.484,1.842,0.726,3.246,0.726h8.08c1.359,0,2.395-0.241,3.109-0.726C168.609,53.99,169.082,53.174,169.082,52.092z"/>
	<path d="M188.97,59.723h-6.076V25.088h6.076V59.723z M210.83,59.723h-7.494l-12.949-11.498c-0.713-0.6-1.07-1.175-1.07-1.727
		c0-0.6,0.402-1.267,1.209-2.004l12.225-10.67h7.285l-14.191,12.674L210.83,59.723z"/>
	<path d="M244.394,44.012l-23.273,6.871v0.863c0,1.359,0.518,2.348,1.553,2.97c0.715,0.368,1.945,0.553,3.695,0.553h17.957v4.454
		H225.23c-3.293,0-5.721-0.494-7.287-1.484c-1.98-1.174-2.969-3.039-2.969-5.594V40.351c0-4.396,3.234-6.595,9.703-6.595h10.67
		c6.031,0,9.047,2.336,9.047,7.01V44.012z M238.179,41.49v-0.38c0-1.979-1.611-2.97-4.834-2.97h-6.699
		c-3.73,0-5.596,1.117-5.596,3.35v5.076L238.179,41.49z"/>
</g>
<g>
	<path fill="#475460" d="M170.341,76.374h-1.621v-8.173h1.621V76.374z"/>
	<path fill="#475460" d="M181.378,75.396c0,0.31-0.111,0.564-0.334,0.766c-0.244,0.229-0.572,0.343-0.986,0.343
		c-0.385,0-0.684-0.088-0.895-0.262c-0.094-0.075-0.256-0.296-0.49-0.659l-3.771-5.745v6.552h-1.549v-6.976
		c0-0.793,0.439-1.189,1.32-1.189c0.402,0,0.705,0.084,0.912,0.253c0.113,0.092,0.283,0.312,0.506,0.659l3.74,5.737v-6.576h1.547
		V75.396z"/>
	<path fill="#475460" d="M191.644,72.902h-5.623v3.472H184.4v-6.479c0-0.526,0.25-0.953,0.75-1.279
		c0.4-0.249,0.996-0.374,1.783-0.374h4.711v1.189h-4.27c-0.902,0-1.354,0.279-1.354,0.839v1.459h5.623V72.902z"/>
	<path fill="#475460" d="M202.714,74.524c0,1.233-0.889,1.85-2.666,1.85h-2.451c-0.859,0-1.5-0.136-1.924-0.407
		c-0.51-0.326-0.766-0.802-0.766-1.426v-4.449c0-0.619,0.26-1.101,0.781-1.442c0.414-0.282,1.049-0.424,1.908-0.424h2.469
		c1.766,0,2.648,0.622,2.648,1.866V74.524z M201.117,74.23v-3.797c0-0.38-0.111-0.645-0.334-0.794s-0.59-0.225-1.1-0.225h-1.703
		c-0.521,0-0.895,0.075-1.117,0.225s-0.334,0.414-0.334,0.794v3.765c0,0.337,0.123,0.595,0.367,0.774
		c0.201,0.142,0.563,0.212,1.084,0.212h1.703c0.5,0,0.863-0.07,1.092-0.212S201.117,74.584,201.117,74.23z"/>
	<path fill="#475460" d="M212.115,69.391h-2.771v6.983h-1.621v-6.983h-2.754v-1.189h7.146V69.391z"/>
	<path fill="#475460" d="M221.253,72.895h-5.287v1.377c0,0.608,0.473,0.913,1.418,0.913h4.188v1.189h-4.629
		c-0.799,0-1.42-0.139-1.865-0.416c-0.49-0.31-0.734-0.746-0.734-1.312v-4.588c0-0.564,0.219-1.009,0.652-1.332
		c0.436-0.323,1.035-0.484,1.801-0.484h4.775v1.189h-4.205c-0.934,0-1.4,0.299-1.4,0.896v1.393h5.287V72.895z"/>
	<path fill="#475460" d="M232.21,69.407h-4.27c-0.467,0-0.801,0.063-1.002,0.188c-0.244,0.168-0.367,0.401-0.367,0.7v3.854
		c0,0.386,0.109,0.654,0.326,0.807s0.592,0.229,1.125,0.229h4.172v1.189h-4.775c-0.787,0-1.396-0.161-1.826-0.484
		c-0.428-0.323-0.643-0.773-0.643-1.349v-4.507c0-0.673,0.229-1.154,0.684-1.442c0.393-0.249,1.029-0.374,1.916-0.374h4.66V69.407z"
		/>
	<path fill="#475460" d="M243.419,76.374h-1.613v-3.479h-4.873v3.479h-1.621v-8.148h1.621v3.495h4.873v-3.495h1.613V76.374z"/>
</g>
<g>
	<path fill="#FF2449" d="M54.395,25.101H12.031c-2.01,0-3.637,1.629-3.637,3.637c0,2.009,1.627,3.637,3.637,3.637h4.996
		c1.951,0.064,3.518,1.657,3.518,3.624l0,0c0,2.009-1.629,3.637-3.637,3.637H3.637C1.627,39.635,0,41.263,0,43.271
		c0,2.008,1.627,3.637,3.637,3.637h34.008c2.008,0,3.635-1.629,3.635-3.637c0-2.009-1.627-3.637-3.635-3.637h-2.596
		c-2.008,0-3.637-1.628-3.637-3.637c0-1.967,1.566-3.56,3.518-3.624h19.465c2.008,0,3.637-1.628,3.637-3.637
		C58.031,26.729,56.402,25.101,54.395,25.101z"/>
	<path fill="#FF2449" d="M54.395,59.723H23.172c-2.008,0-3.635-1.629-3.635-3.637l0,0c0-2.009,1.627-3.637,3.635-3.637h31.223
		c2.008,0,3.637,1.628,3.637,3.637l0,0C58.031,58.094,56.402,59.723,54.395,59.723z"/>
	<path fill="#FF2449" d="M54.395,46.908h-7.082c-2.008,0-3.637-1.629-3.637-3.637l0,0c0-2.009,1.629-3.637,3.637-3.637h7.082
		c2.008,0,3.637,1.628,3.637,3.637l0,0C58.031,45.279,56.402,46.908,54.395,46.908z"/>
</g>
</svg>
