<?xml version="1.0" encoding="utf-8"?>
<!-- Generator: Adobe Illustrator 16.0.0, SVG Export Plug-In . SVG Version: 6.00 Build 0)  -->
<!DOCTYPE svg PUBLIC "-//W3C//DTD SVG 1.1//EN" "http://www.w3.org/Graphics/SVG/1.1/DTD/svg11.dtd">
<svg version="1.1" id="Layer_1" xmlns="http://www.w3.org/2000/svg" xmlns:xlink="http://www.w3.org/1999/xlink" x="0px" y="0px"
	 width="244.395px" height="51.417px" viewBox="0 0 244.395 51.417" enable-background="new 0 0 244.395 51.417"
	 xml:space="preserve">
<g>
	<g>
		<path fill="#fff" d="M95.977,5.146H78.366c-2.878,0-4.674,0.529-5.387,1.588c-0.415,0.645-0.622,2.106-0.622,4.386
			c0,1.197,0.541,2.13,1.623,2.797c0.898,0.53,2.359,0.794,4.386,0.794h7.286c3.108,0,5.594,0.622,7.459,1.865
			s2.797,2.992,2.797,5.248v5.457c0,2.371-0.956,4.189-2.866,5.455c-1.911,1.268-4.523,1.9-7.839,1.9H65.554v-5.042h17.611
			c2.923,0,4.742-0.575,5.456-1.727c0.322-0.599,0.483-2.152,0.483-4.662c0-2.349-1.911-3.522-5.732-3.522h-7.286
			c-3.016,0-5.491-0.574-7.424-1.727c-2.118-1.266-3.177-2.992-3.177-5.18V7.39c0-2.418,1.151-4.34,3.453-5.768
			c1.611-1.012,3.948-1.519,7.01-1.519h20.028V5.146z"/>
		<path fill="#fff" d="M117.87,13.397h-7.701v21.238h-6.077V0h6.077v9.048h7.701V13.397z"/>
		<path fill="#fff" d="M140.074,12.776c-4.696,0-7.425,0.092-8.185,0.276c-1.611,0.483-2.417,1.646-2.417,3.487v17.957h-6.285V15.332
			c0-4.673,3.281-7.011,9.842-7.011h7.045V12.776z"/>
		<path fill="#fff" d="M175.158,28.212c0,2.211-0.99,3.902-2.97,5.076c-1.404,0.898-3.522,1.348-6.354,1.348h-10.532
			c-3.224,0-5.635-0.576-7.234-1.727c-1.601-1.151-2.4-2.717-2.4-4.697V15.263c0-2.256,1.013-4.006,3.039-5.248
			c1.473-0.898,3.672-1.348,6.596-1.348h10.532c2.923,0,5.064,0.449,6.423,1.348c1.934,1.174,2.9,2.924,2.9,5.248V28.212z
			 M169.081,27.004V16.472c0-1.197-0.473-2.072-1.416-2.625c-0.76-0.529-1.934-0.794-3.522-0.794h-7.217
			c-1.658,0-2.89,0.265-3.695,0.794c-0.99,0.553-1.485,1.428-1.485,2.625v10.463c0,1.129,0.495,1.969,1.485,2.521
			c0.76,0.482,1.842,0.725,3.246,0.725h8.08c1.358,0,2.395-0.242,3.108-0.725C168.608,28.903,169.081,28.086,169.081,27.004z"/>
		<path fill="#fff" d="M188.971,34.636h-6.077V0h6.077V34.636z M210.83,34.636h-7.494l-12.949-11.5c-0.714-0.598-1.07-1.174-1.07-1.727
			c0-0.598,0.402-1.266,1.209-2.002l12.224-10.671h7.286l-14.192,12.673L210.83,34.636z"/>
		<path fill="#fff" d="M244.395,18.923l-23.274,6.872v0.863c0,1.358,0.519,2.349,1.554,2.97c0.714,0.369,1.945,0.553,3.695,0.553h17.957v4.455
			h-19.097c-3.292,0-5.721-0.495-7.286-1.485c-1.98-1.175-2.97-3.038-2.97-5.595V15.263c0-4.396,3.234-6.596,9.703-6.596h10.671
			c6.031,0,9.047,2.337,9.047,7.01V18.923z M238.179,16.402v-0.38c0-1.979-1.611-2.97-4.834-2.97h-6.699
			c-3.729,0-5.595,1.117-5.595,3.35v5.076L238.179,16.402z"/>
	</g>
	<g>
		<path fill="#fff" d="M170.342,51.286h-1.622v-8.173h1.622V51.286z"/>
		<path fill="#fff" d="M181.379,50.309c0,0.31-0.111,0.564-0.334,0.766c-0.244,0.229-0.573,0.343-0.986,0.343
			c-0.386,0-0.685-0.088-0.896-0.262c-0.093-0.075-0.256-0.296-0.489-0.659l-3.772-5.745v6.552h-1.549v-6.976
			c0-0.793,0.44-1.189,1.32-1.189c0.402,0,0.706,0.084,0.912,0.253c0.114,0.092,0.283,0.312,0.506,0.659l3.74,5.737v-6.576h1.548
			V50.309z"/>
		<path fill="#fff" d="M191.644,47.814h-5.622v3.472h-1.622v-6.479c0-0.526,0.25-0.953,0.75-1.279
			c0.401-0.249,0.997-0.374,1.784-0.374h4.71v1.189h-4.27c-0.902,0-1.353,0.279-1.353,0.839v1.459h5.622V47.814z"/>
		<path fill="#fff" d="M202.714,49.437c0,1.233-0.889,1.85-2.665,1.85h-2.452c-0.858,0-1.5-0.136-1.923-0.407
			c-0.511-0.326-0.767-0.802-0.767-1.426v-4.449c0-0.619,0.261-1.101,0.782-1.442c0.413-0.282,1.049-0.424,1.907-0.424h2.469
			c1.766,0,2.648,0.622,2.648,1.866V49.437z M201.116,49.143v-3.797c0-0.38-0.111-0.645-0.334-0.794s-0.589-0.225-1.1-0.225h-1.703
			c-0.521,0-0.894,0.075-1.116,0.225s-0.334,0.414-0.334,0.794v3.765c0,0.337,0.122,0.595,0.366,0.774
			c0.201,0.142,0.563,0.212,1.084,0.212h1.703c0.5,0,0.863-0.07,1.092-0.212S201.116,49.496,201.116,49.143z"/>
		<path fill="#fff" d="M212.114,44.303h-2.771v6.983h-1.622v-6.983h-2.754v-1.189h7.146V44.303z"/>
		<path fill="#fff" d="M221.254,47.807h-5.288v1.377c0,0.608,0.473,0.913,1.418,0.913h4.188v1.189h-4.628
			c-0.799,0-1.421-0.139-1.866-0.416c-0.489-0.31-0.733-0.746-0.733-1.312v-4.588c0-0.564,0.218-1.009,0.652-1.332
			s1.034-0.484,1.801-0.484h4.774v1.189h-4.204c-0.935,0-1.401,0.299-1.401,0.896v1.393h5.288V47.807z"/>
		<path fill="#fff" d="M232.211,44.319h-4.271c-0.467,0-0.801,0.063-1.002,0.188c-0.244,0.168-0.366,0.401-0.366,0.7v3.854
			c0,0.386,0.108,0.654,0.325,0.807c0.218,0.152,0.593,0.229,1.125,0.229h4.172v1.189h-4.775c-0.787,0-1.396-0.161-1.825-0.484
			c-0.429-0.323-0.644-0.773-0.644-1.349v-4.507c0-0.673,0.229-1.154,0.685-1.442c0.392-0.249,1.029-0.374,1.915-0.374h4.661V44.319
			z"/>
		<path fill="#fff" d="M243.42,51.286h-1.614v-3.479h-4.872v3.479h-1.622v-8.148h1.622v3.495h4.872v-3.495h1.614V51.286z"/>
	</g>
	<g>
		<path fill="#FF2449" d="M54.395,0.013H12.031c-2.01,0-3.637,1.629-3.637,3.637c0,2.009,1.627,3.637,3.637,3.637h4.996
			c1.951,0.064,3.518,1.657,3.518,3.624l0,0c0,2.009-1.629,3.637-3.637,3.637H3.637C1.627,14.547,0,16.175,0,18.184
			c0,2.008,1.627,3.637,3.637,3.637h34.008c2.008,0,3.635-1.629,3.635-3.637c0-2.009-1.627-3.637-3.635-3.637h-2.596
			c-2.008,0-3.637-1.628-3.637-3.637c0-1.967,1.566-3.56,3.518-3.624h19.465c2.008,0,3.637-1.628,3.637-3.637
			C58.031,1.642,56.402,0.013,54.395,0.013z"/>
		<path fill="#FF2449" d="M54.395,34.635H23.172c-2.008,0-3.635-1.629-3.635-3.637l0,0c0-2.009,1.627-3.637,3.635-3.637h31.223
			c2.008,0,3.637,1.628,3.637,3.637l0,0C58.031,33.006,56.402,34.635,54.395,34.635z"/>
		<path fill="#FF2449" d="M54.395,21.82h-7.082c-2.008,0-3.637-1.629-3.637-3.637l0,0c0-2.009,1.629-3.637,3.637-3.637h7.082
			c2.008,0,3.637,1.628,3.637,3.637l0,0C58.031,20.191,56.402,21.82,54.395,21.82z"/>
	</g>
</g>
</svg>
